# xmcd
#
# Track frame offsets:
#	150
#	12742
#	27082
#	41730
#	57000
#	71832
#	85172
#	100242
#	116542
#	134837
#	152952
#	168662
#
# Disc length: 2433 seconds
#
# Revision: 3
# Processed by: cddbd v1.4PL0 Copyright (c) Steve Scherf et al.
# Submitted via: MusicWizard 6.0.2
#
DISCID=a9097f0c
DTITLE=Bellamy Brothers - The Very Best Of The
DYEAR=1900
DGENRE=Folklore
TTITLE0=Let Your Love Flow
TTITLE1=If I Said You Had A Beatiful Body
TTITLE2=Dancin' Cowboys
TTITLE3=Redneck Girl
TTITLE4=Lovers Live Longer
TTITLE5=Do You Love As Good As You Look
TTITLE6=Big Love
TTITLE7=Crazy From The Heart
TTITLE8=Our Love
TTITLE9=Old Hippie
TTITLE10=Sugar Daddy
TTITLE11=I Don't Wanna Loose You
EXTD=
EXTT0=
EXTT1=
EXTT2=
EXTT3=
EXTT4=
EXTT5=
EXTT6=
EXTT7=
EXTT8=
EXTT9=
EXTT10=
EXTT11=
PLAYORDER=
